<svg xmlns="http://www.w3.org/2000/svg" width="96.039" height="44.868" viewBox="0 0 96.039 44.868"><defs><style>.a,.b{fill:#fff;}.b{font-size:26px;font-family:Gilroy-Bold;font-weight:700;}</style></defs><g transform="translate(-57.961 -48.132)"><g transform="translate(0 -30)"><g transform="translate(57.961 78.132)"><g transform="translate(0 0)"><path class="a" d="M262.85,83.981l.006.007s-1.786.792-2.692,1.23v-.275a.939.939,0,0,0-.939-.939h0A10.332,10.332,0,0,0,248.9,94.328a.939.939,0,0,0,.939.939h.272a21.619,21.619,0,0,0-2.149,9.382c.007,4.888,2.55,12.735,6.718,15.288l1.4,5.6a2.814,2.814,0,0,0,2.731,2.131h2.815a2.815,2.815,0,0,0,2.67-1.924l1.232-3.705h8.03l1.24,3.705a2.815,2.815,0,0,0,2.666,1.925h2.815a2.814,2.814,0,0,0,2.731-2.131l1.4-5.6c4.167-2.554,6.71-10.4,6.715-15.288a21.6,21.6,0,0,0-2.148-9.387h.272a.939.939,0,0,0,.939-.939A10.333,10.333,0,0,0,279.864,84a.939.939,0,0,0-.939.939v.272a21.468,21.468,0,0,0-2.8-1.115S268.866,81.732,262.85,83.981Zm-.337,41.166a.941.941,0,0,1-.889.642H258.81a.939.939,0,0,1-.907-.711l-1.007-4.029a13.989,13.989,0,0,0,5.146.987h1.513Zm18.671-.07a.94.94,0,0,1-.911.711h-2.815a.941.941,0,0,1-.889-.642l-1.033-3.111h1.513a13.981,13.981,0,0,0,5.148-.987ZM280.8,85.935a8.463,8.463,0,0,1,7.454,7.454H280.8Zm-22.519,0v7.454h-7.448a8.462,8.462,0,0,1,7.45-7.454Zm.939,9.33a.939.939,0,0,0,.939-.939h0v-7a19.651,19.651,0,0,1,18.765,0v7a.939.939,0,0,0,.939.939h7a19.694,19.694,0,0,1,2.385,9.387c-.01,6.731-5.465,15.5-12.2,15.506H262.038c-6.733-.009-12.188-8.777-12.2-15.51a19.694,19.694,0,0,1,2.385-9.387Z" transform="translate(-247.854 -82.908)"/><path class="a" d="M280.29,127.786h-2.815a2.922,2.922,0,0,1-2.771-2l-1.216-3.63h-7.869l-1.207,3.63a2.923,2.923,0,0,1-2.775,2h-2.815a2.918,2.918,0,0,1-2.837-2.215l-1.389-5.551c-4.326-2.689-6.726-10.777-6.732-15.36a21.846,21.846,0,0,1,2.085-9.271h-.1a1.05,1.05,0,0,1-1.048-1.049A10.456,10.456,0,0,1,259.235,83.9a1.048,1.048,0,0,1,1.048,1.048v.1c.82-.39,2.143-.98,2.466-1.124v0l.072-.035c5.984-2.236,13.275.092,13.348.115a21.589,21.589,0,0,1,2.656,1.046v-.1a1.049,1.049,0,0,1,1.049-1.048,10.46,10.46,0,0,1,10.431,10.43,1.05,1.05,0,0,1-1.049,1.048h-.1a21.846,21.846,0,0,1,2.084,9.276c0,4.582-2.4,12.669-6.73,15.36l-1.385,5.553A2.921,2.921,0,0,1,280.29,127.786Zm-14.83-5.851h8.189l1.264,3.78a2.705,2.705,0,0,0,2.562,1.851h2.815a2.7,2.7,0,0,0,2.625-2.05l1.406-5.639.038-.024c4.283-2.626,6.658-10.651,6.664-15.2a21.636,21.636,0,0,0-2.137-9.338l-.077-.158h.448a.83.83,0,0,0,.829-.828,10.242,10.242,0,0,0-10.212-10.211.83.83,0,0,0-.828.828V85.4l-.158-.076a21.084,21.084,0,0,0-2.786-1.109c-.074-.025-7.207-2.3-13.093-.16l-.1.044c-.018.008-1.8.8-2.689,1.229l-.159.076v-.451a.83.83,0,0,0-.828-.828,10.237,10.237,0,0,0-10.212,10.214.83.83,0,0,0,.828.829h.447l-.076.158a21.622,21.622,0,0,0-2.139,9.333c.007,4.545,2.384,12.572,6.666,15.2l.039.024,1.41,5.638a2.7,2.7,0,0,0,2.624,2.05h2.815a2.7,2.7,0,0,0,2.565-1.849Zm14.823,3.973h-2.815a1.049,1.049,0,0,1-.994-.718l-1.081-3.256h1.666a13.816,13.816,0,0,0,5.108-.98l.2-.079-1.066,4.237A1.049,1.049,0,0,1,280.284,125.908Zm-4.584-3.754.985,2.967a.827.827,0,0,0,.784.565h2.815a.829.829,0,0,0,.8-.628l.961-3.821a14.016,14.016,0,0,1-4.988.917Zm-14.065,3.754H258.82a1.05,1.05,0,0,1-1.014-.8l-1.06-4.237.2.079a13.827,13.827,0,0,0,5.105.98h1.666l-1.091,3.257A1.048,1.048,0,0,1,261.635,125.908Zm-4.571-4.67.956,3.821a.829.829,0,0,0,.8.628h2.814a.828.828,0,0,0,.784-.565h0l.993-2.966h-1.359A14.055,14.055,0,0,1,257.064,121.238Zm20-.959H262.048c-6.618-.008-12.3-8.6-12.307-15.622a19.855,19.855,0,0,1,2.4-9.439l.032-.057,7.06,0a.83.83,0,0,0,.828-.828V87.275l.057-.031a19.7,19.7,0,0,1,18.871,0l.057.031v7.063a.83.83,0,0,0,.828.829h7.062l.031.057a19.856,19.856,0,0,1,2.4,9.439C289.357,111.687,283.675,120.272,277.06,120.28ZM252.3,95.381a19.636,19.636,0,0,0-2.341,9.276c.008,6.926,5.586,15.393,12.086,15.4H277.06c6.5-.009,12.075-8.472,12.086-15.4a19.636,19.636,0,0,0-2.341-9.276h-6.931a1.05,1.05,0,0,1-1.049-1.049V87.406a19.476,19.476,0,0,0-18.545,0v6.931a1.049,1.049,0,0,1-1.048,1.048Zm36.087-1.872H280.7V85.821l.123.014a8.533,8.533,0,0,1,7.551,7.55Zm-7.468-.22h7.219a8.314,8.314,0,0,0-7.219-7.221Zm-22.52.22h-7.681l.014-.124a8.532,8.532,0,0,1,7.447-7.539v-.011h.113l.005.109h.1Zm-7.432-.22h7.212V86.07A8.31,8.31,0,0,0,250.97,93.29Z" transform="translate(-247.864 -82.918)"/><g transform="translate(14.074 18.483)"><path class="a" d="M268.217,111.019c4.139,0,7.509-2.524,7.509-5.632s-3.374-5.632-7.509-5.632-7.509,2.524-7.509,5.632S264.075,111.019,268.217,111.019Zm0-9.387c3.051,0,5.632,1.718,5.632,3.755s-2.579,3.755-5.632,3.755-5.632-1.718-5.632-3.755S265.163,101.632,268.217,101.632Z" transform="translate(-260.598 -99.645)"/><path class="a" d="M268.228,111.14c-4.2,0-7.62-2.576-7.62-5.744s3.418-5.741,7.62-5.741,7.619,2.575,7.619,5.741S272.429,111.14,268.228,111.14Zm0-11.265c-4.08,0-7.4,2.478-7.4,5.522s3.318,5.523,7.4,5.523,7.4-2.477,7.4-5.523S272.307,99.875,268.228,99.875Zm0,9.387c-3.113,0-5.741-1.769-5.741-3.865s2.628-3.864,5.741-3.864,5.743,1.77,5.743,3.864S271.341,109.262,268.228,109.262Zm0-7.508c-2.993,0-5.522,1.669-5.522,3.643s2.529,3.645,5.522,3.645,5.523-1.669,5.523-3.645S271.222,101.753,268.228,101.753Z" transform="translate(-260.608 -99.655)"/></g><g transform="translate(18.768 23.191)"><path class="a" d="M265.894,105.875a.929.929,0,1,0-.663-.272A.987.987,0,0,0,265.894,105.875Z" transform="translate(-264.849 -103.908)"/><path class="a" d="M265.9,106h0a1.094,1.094,0,0,1-.737-.3,1.039,1.039,0,0,1,.726-1.776h.007a1.039,1.039,0,0,1,.008,2.078Zm0-1.859h-.006a.82.82,0,0,0-.574,1.4.878.878,0,0,0,.586.24.819.819,0,0,0-.007-1.639Z" transform="translate(-264.859 -103.918)"/></g><g transform="translate(22.523 23.191)"><path class="a" d="M269.293,105.875a.93.93,0,1,0-.663-.272A.987.987,0,0,0,269.293,105.875Z" transform="translate(-268.249 -103.908)"/><path class="a" d="M269.3,106h0a1.1,1.1,0,0,1-.737-.3,1.039,1.039,0,0,1,.724-1.776h.007A1.039,1.039,0,0,1,269.3,106Zm-.006-1.859h-.006a.822.822,0,0,0-.813.824.813.813,0,0,0,.241.574.871.871,0,0,0,.585.241.819.819,0,0,0-.008-1.639Z" transform="translate(-268.259 -103.918)"/></g></g><path class="a" d="M278.065,102.224a1.547,1.547,0,0,1-.179-.007,2.394,2.394,0,0,1-2.347-1.347.624.624,0,0,1,1.142-.5,1.239,1.239,0,0,0,1.181.605H278c.255,0,.982-.041,1.158-.554a.624.624,0,1,1,1.182.4l0,.006A2.3,2.3,0,0,1,278.065,102.224Z" transform="translate(-244.982 -81.136)"/><path class="a" d="M258.421,102.224a1.548,1.548,0,0,1-.179-.007,2.394,2.394,0,0,1-2.347-1.347.624.624,0,0,1,1.142-.5,1.24,1.24,0,0,0,1.181.605h.136c.255,0,.982-.041,1.158-.554a.624.624,0,1,1,1.182.4v.006A2.3,2.3,0,0,1,258.421,102.224Z" transform="translate(-247.031 -81.136)"/></g><text class="b" transform="translate(111 108)"><tspan x="0" y="0">PIG</tspan></text></g></g></svg>